# xmcd
#
# Track frame offsets:
#	150
#	12462
#	30907
#	51399
#	76589
#	93451
#	114134
#	132249
#	149162
#	166110
#	186392
#	209634
#	232893
#
# Disc length: 3353 seconds
#
# Revision: 1
# Processed by: cddbd v1.5.2PL0 Copyright (c) Steve Scherf et al.
# Submitted via: audiograbber 1.83.01
#
DISCID=aa0d170d
DTITLE=The Coal Men - Escalator
DYEAR=2013
DGENRE=Alt-Country
TTITLE0=Last Goodbye
TTITLE1=Stuck
TTITLE2=The Fall
TTITLE3=Better Than
TTITLE4=Role Model
TTITLE5=Tennessee
TTITLE6=Broken Heartland
TTITLE7=Sanity
TTITLE8=One Thing At A Time
TTITLE9=Midnight You
TTITLE10=Old Friends
TTITLE11=Wanting Peace
TTITLE12=Lonoke, Arkansas
EXTD=
EXTT0=
EXTT1=
EXTT2=
EXTT3=
EXTT4=
EXTT5=
EXTT6=
EXTT7=
EXTT8=
EXTT9=
EXTT10=
EXTT11=
EXTT12=
PLAYORDER=
